solid OpenSCAD_Model
  facet normal 0 0 1
    outer loop
      vertex 8 8 12.5
      vertex -6 6 12.5
      vertex 8 6 12.5
    endloop
  endfacet
  facet normal 0 0 1
    outer loop
      vertex -6 6 12.5
      vertex -8 8 12.5
      vertex -6 -6 12.5
    endloop
  endfacet
  facet normal -0 0 1
    outer loop
      vertex -8 8 12.5
      vertex -6 6 12.5
      vertex 8 8 12.5
    endloop
  endfacet
  facet normal -0 0 1
    outer loop
      vertex -6 -6 12.5
      vertex 8 -8 12.5
      vertex 8 -6 12.5
    endloop
  endfacet
  facet normal 0 0 1
    outer loop
      vertex -6 -6 12.5
      vertex -8 -8 12.5
      vertex 8 -8 12.5
    endloop
  endfacet
  facet normal 0 0 1
    outer loop
      vertex -8 -8 12.5
      vertex -6 -6 12.5
      vertex -8 8 12.5
    endloop
  endfacet
  facet normal 1 -0 0
    outer loop
      vertex 8 -8 12.5
      vertex 8 -6 -12.5
      vertex 8 -6 12.5
    endloop
  endfacet
  facet normal 1 0 0
    outer loop
      vertex 8 -6 -12.5
      vertex 8 -8 12.5
      vertex 8 -8 -12.5
    endloop
  endfacet
  facet normal 1 -0 0
    outer loop
      vertex 8 6 12.5
      vertex 8 8 -12.5
      vertex 8 8 12.5
    endloop
  endfacet
  facet normal 1 0 0
    outer loop
      vertex 8 8 -12.5
      vertex 8 6 12.5
      vertex 8 6 -12.5
    endloop
  endfacet
  facet normal 0 0 -1
    outer loop
      vertex 6 -6 -12.5
      vertex 8 -6 -12.5
      vertex 8 -8 -12.5
    endloop
  endfacet
  facet normal 0 0 -1
    outer loop
      vertex 8 -6 -12.5
      vertex 6 -6 -12.5
      vertex 8 6 -12.5
    endloop
  endfacet
  facet normal 0 0 -1
    outer loop
      vertex 6 6 -12.5
      vertex 8 6 -12.5
      vertex 6 -6 -12.5
    endloop
  endfacet
  facet normal 0 0 -1
    outer loop
      vertex 8 -8 -12.5
      vertex -6 -6 -12.5
      vertex 6 -6 -12.5
    endloop
  endfacet
  facet normal -0 0 -1
    outer loop
      vertex -6 -6 -12.5
      vertex -8 -8 -12.5
      vertex -6 6 -12.5
    endloop
  endfacet
  facet normal 0 0 -1
    outer loop
      vertex -8 -8 -12.5
      vertex -6 -6 -12.5
      vertex 8 -8 -12.5
    endloop
  endfacet
  facet normal 0 0 -1
    outer loop
      vertex 8 6 -12.5
      vertex 6 6 -12.5
      vertex 8 8 -12.5
    endloop
  endfacet
  facet normal 0 0 -1
    outer loop
      vertex -6 6 -12.5
      vertex 8 8 -12.5
      vertex 6 6 -12.5
    endloop
  endfacet
  facet normal 0 0 -1
    outer loop
      vertex -6 6 -12.5
      vertex -8 8 -12.5
      vertex 8 8 -12.5
    endloop
  endfacet
  facet normal 0 0 -1
    outer loop
      vertex -8 8 -12.5
      vertex -6 6 -12.5
      vertex -8 -8 -12.5
    endloop
  endfacet
  facet normal 0 1 -0
    outer loop
      vertex 8 8 -12.5
      vertex -8 8 12.5
      vertex 8 8 12.5
    endloop
  endfacet
  facet normal 0 1 0
    outer loop
      vertex -8 8 12.5
      vertex 8 8 -12.5
      vertex -8 8 -12.5
    endloop
  endfacet
  facet normal -1 0 0
    outer loop
      vertex -8 -8 -12.5
      vertex -8 8 12.5
      vertex -8 8 -12.5
    endloop
  endfacet
  facet normal -1 -0 0
    outer loop
      vertex -8 8 12.5
      vertex -8 -8 -12.5
      vertex -8 -8 12.5
    endloop
  endfacet
  facet normal 0 -1 0
    outer loop
      vertex -8 -8 -12.5
      vertex 8 -8 12.5
      vertex -8 -8 12.5
    endloop
  endfacet
  facet normal 0 -1 -0
    outer loop
      vertex 8 -8 12.5
      vertex -8 -8 -12.5
      vertex 8 -8 -12.5
    endloop
  endfacet
  facet normal -1 0 0
    outer loop
      vertex 6 -6 -12.5
      vertex 6 6 0
      vertex 6 6 -12.5
    endloop
  endfacet
  facet normal -1 -0 0
    outer loop
      vertex 6 6 0
      vertex 6 -6 -12.5
      vertex 6 -6 0
    endloop
  endfacet
  facet normal 0 -1 0
    outer loop
      vertex -6 6 12.5
      vertex 6 6 0
      vertex 8 6 12.5
    endloop
  endfacet
  facet normal 0 -1 0
    outer loop
      vertex -6 6 -12.5
      vertex 6 6 0
      vertex -6 6 12.5
    endloop
  endfacet
  facet normal 0 -1 -0
    outer loop
      vertex 6 6 0
      vertex -6 6 -12.5
      vertex 6 6 -12.5
    endloop
  endfacet
  facet normal 0 -1 -0
    outer loop
      vertex 8 6 12.5
      vertex 6 6 0
      vertex 8 6 -12.5
    endloop
  endfacet
  facet normal 1 -0 0
    outer loop
      vertex -6 -6 12.5
      vertex -6 6 -12.5
      vertex -6 6 12.5
    endloop
  endfacet
  facet normal 1 0 0
    outer loop
      vertex -6 6 -12.5
      vertex -6 -6 12.5
      vertex -6 -6 -12.5
    endloop
  endfacet
  facet normal 0 1 0
    outer loop
      vertex 8 -6 12.5
      vertex 6 -6 0
      vertex -6 -6 12.5
    endloop
  endfacet
  facet normal -0 1 0
    outer loop
      vertex 6 -6 0
      vertex 8 -6 12.5
      vertex 8 -6 -12.5
    endloop
  endfacet
  facet normal 0 1 0
    outer loop
      vertex -6 -6 -12.5
      vertex 6 -6 0
      vertex 6 -6 -12.5
    endloop
  endfacet
  facet normal 0 1 0
    outer loop
      vertex 6 -6 0
      vertex -6 -6 -12.5
      vertex -6 -6 12.5
    endloop
  endfacet
  facet normal 0.987441 -0 0.157991
    outer loop
      vertex 6 -6 0
      vertex 8 6 -12.5
      vertex 6 6 0
    endloop
  endfacet
  facet normal 0.987441 0 0.157991
    outer loop
      vertex 8 6 -12.5
      vertex 6 -6 0
      vertex 8 -6 -12.5
    endloop
  endfacet
endsolid OpenSCAD_Model
